<?xml version="1.0" encoding="UTF-8"?>
<svg version="1.1" xmlns="http://www.w3.org/2000/svg" width="542" height="642">
<path d="M0 0 C178.86 0 357.72 0 542 0 C542 211.86 542 423.72 542 642 C363.14 642 184.28 642 0 642 C0 430.14 0 218.28 0 0 Z " fill="#000000" transform="translate(0,0)"/>
<path d="M0 0 C0.66 0 1.32 0 2 0 C2.27972656 1.21171875 2.55945313 2.4234375 2.84765625 3.671875 C9.29217398 30.89577855 18.37311232 63.18328121 42.75390625 79.88671875 C45.14052742 81.32147063 47.55349443 82.67125569 50 84 C50.99 84.66 51.98 85.32 53 86 C52.51779915 89.66472643 51.67672185 92.91453145 50.4375 96.375 C49.00769766 101.03247495 48.63844217 105.41298275 48.5625 110.25 C48.54050537 110.92337402 48.51851074 111.59674805 48.49584961 112.29052734 C48.51647515 117.34690988 49.93259467 120.06884877 53 124 C53.50660156 124.68320313 54.01320313 125.36640625 54.53515625 126.0703125 C55.03917969 126.74835938 55.54320312 127.42640625 56.0625 128.125 C61.81183941 136.25943654 66.30261919 145.23308716 71 154 C72.58031753 154.05610259 74.16121935 154.09588006 75.7421875 154.12890625 C76.62245605 154.15283447 77.50272461 154.1767627 78.40966797 154.20141602 C82.80555179 153.85960601 85.62806958 151.67831541 89 149 C89.62261719 148.53851563 90.24523437 148.07703125 90.88671875 147.6015625 C96.71389728 142.94454761 101.00797799 137.11007091 105.484375 131.20703125 C107.48958898 128.60192156 109.51783365 126.17459356 112 124 C112.66 124 113.32 124 114 124 C114.99 127.3 115.98 130.6 117 134 C127.86986781 135.27880798 136.37439621 131.04313496 146.11157227 126.734375 C148 126 148 126 150 126 C151.33583899 130.84241633 152.25328119 134.93437617 152 140 C157.32609691 135.73242298 161.30760054 131.31459859 165.3125 125.8125 C169.97267243 119.5494614 174.80682822 113.67181858 180.171875 108.00390625 C182.04899265 106.12903447 182.04899265 106.12903447 183 104 C183.66 104.33 184.32 104.66 185 105 C176.68743055 118.90636619 166.60087939 131.69002599 156.703125 144.48828125 C143.61005288 161.2297938 143.61005288 161.2297938 132 179 C131.34 180.03125 130.68 181.0625 130 182.125 C128.32303781 186.9462663 129.04099244 191.6495774 130.95947266 196.3515625 C132.1806195 198.75461043 133.47451848 201.09758148 134.8125 203.4375 C135.72598525 205.10364791 136.63618522 206.77160154 137.54296875 208.44140625 C138.18758057 209.62307373 138.18758057 209.62307373 138.84521484 210.82861328 C144.91929024 222.24992968 144.91929024 222.24992968 144 228 C140.44739663 231.64825038 136.08194176 233.57446765 131.5 235.625 C130.52353516 236.07359375 130.52353516 236.07359375 129.52734375 236.53125 C126.7681008 237.79102557 124.01445645 238.99460878 121.171875 240.0546875 C117.59686751 241.61071594 115.70752375 244.5849525 114 248 C113.52163421 251.08212897 113.47004449 253.92197555 114 257 C119.46629366 263.68102559 129.12958488 266.34309429 137.25 268.4375 C152.28306698 272.33496181 166.11997534 279.17740912 180 286 C180 286.33 180 286.66 180 287 C179.06800781 287.03738281 178.13601563 287.07476562 177.17578125 287.11328125 C157.01081177 288.15313306 141.28811521 294.49703897 124.45898438 305.41748047 C115.04974741 311.46856861 108.48829644 313.47829411 97.25 313.25 C96.15397461 313.23904297 95.05794922 313.22808594 93.92871094 313.21679688 C87.02792115 313.12470627 80.14111535 312.86818666 73.25 312.5 C72.43740723 312.45697754 71.62481445 312.41395508 70.78759766 312.36962891 C67.21937417 312.17804151 63.65252995 311.97849986 60.0859375 311.7578125 C53.39806457 311.36304217 53.39806457 311.36304217 47.4375 313.9375 C40.18863322 323.04505058 39.50557139 333.78805545 38 345 C33.60346208 344.0501518 31.58126504 341.97681341 28.390625 338.88671875 C25.18546914 336.35715947 21.68864337 334.71772852 18 333 C17.93530518 333.69633545 17.87061035 334.3926709 17.80395508 335.11010742 C14.87154818 365.99225355 9.64271953 396.29305384 0.9921875 426.1171875 C0.69038574 427.15987793 0.38858398 428.20256836 0.07763672 429.27685547 C-2.12800773 434.85043005 -6.46034485 437.40724435 -11.6875 439.875 C-15 441 -15 441 -19 441 C-19 441.66 -19 442.32 -19 443 C-26.75 443.125 -26.75 443.125 -29 442 C-29.3641304 436.93615997 -28.14642202 433.26539737 -26.0703125 428.7421875 C-25.43793069 427.31122337 -24.80560898 425.88023267 -24.17333984 424.44921875 C-23.83888855 423.70333496 -23.50443726 422.95745117 -23.15985107 422.18896484 C-6.14435691 385.29778563 -6.14435691 385.29778563 1.8203125 345.87109375 C2.06091008 343.3657407 3.01476611 341.29887908 4 339 C4.0370279 337.3337447 4.04130962 335.66615464 4 334 C2.67935547 335.03060547 2.67935547 335.03060547 1.33203125 336.08203125 C0.15896515 336.99233054 -1.01421815 337.9024788 -2.1875 338.8125 C-2.76564453 339.26431641 -3.34378906 339.71613281 -3.93945312 340.18164062 C-7.18252081 342.69181166 -10.42313088 344.97243389 -14 347 C-14.32871094 345.25976562 -14.32871094 345.25976562 -14.6640625 343.484375 C-16.5286614 334.11720043 -18.41242123 324.97161237 -24 317 C-27.83187511 315.7227083 -31.44708317 315.85489714 -35.4375 315.875 C-36.20126953 315.87113281 -36.96503906 315.86726563 -37.75195312 315.86328125 C-38.49251953 315.86457031 -39.23308594 315.86585938 -39.99609375 315.8671875 C-41.00434204 315.86887939 -41.00434204 315.86887939 -42.03295898 315.87060547 C-44.048666 315.93885218 -44.048666 315.93885218 -46.12524414 316.57080078 C-48 317 -48 317 -50 316 C-49.34 317.65 -48.68 319.3 -48 321 C-48.99 320.67 -49.98 320.34 -51 320 C-51 319.34 -51 318.68 -51 318 C-58.61267499 317.85937352 -58.61267499 317.85937352 -66.1875 318.5 C-81.07208287 320.26054206 -91.13404518 318.29341909 -104.36108398 311.09057617 C-104.98442627 310.75131104 -105.60776855 310.4120459 -106.25 310.0625 C-106.877854 309.72001221 -107.50570801 309.37752441 -108.15258789 309.0246582 C-122.7363299 301.20487312 -138.14292664 297.04626643 -154.70703125 296.30859375 C-157 296 -157 296 -159 294 C-143.69268118 285.42939851 -128.71017239 277.73502125 -112.03393555 272.17822266 C-103.14007658 269.29015121 -103.14007658 269.29015121 -96 263.625 C-94.4223862 259.48376377 -94.4223862 256.51623623 -96 252.375 C-99.47705034 248.24600273 -103.91394839 246.60695079 -108.98046875 245.1328125 C-121.38647599 241.51614598 -132.03631164 235.07637627 -143.17236328 228.625 C-146.76797058 226.55865894 -150.40148784 224.57252715 -154.0625 222.625 C-155.04347656 222.10164062 -156.02445313 221.57828125 -157.03515625 221.0390625 C-157.68355469 220.69617188 -158.33195312 220.35328125 -159 220 C-156.73200193 218.25876277 -154.54995043 216.74146089 -152.0625 215.3125 C-146.83120853 211.36234113 -143.96503211 206.47950132 -143 200 C-140.19812648 170.83295593 -158.36288765 141.65109064 -174.24145508 118.65942383 C-174.73154053 117.94681396 -175.22162598 117.2342041 -175.7265625 116.5 C-176.38519287 115.55640625 -176.38519287 115.55640625 -177.05712891 114.59375 C-178 113 -178 113 -178 111 C-174.67529632 112.27152251 -171.57872559 113.69754711 -168.47265625 115.43359375 C-167.17702759 116.15180298 -167.17702759 116.15180298 -165.85522461 116.88452148 C-164.47282593 117.65324585 -164.47282593 117.65324585 -163.0625 118.4375 C-137.44301885 134.71542497 -137.44301885 134.71542497 -109 141 C-105.76340806 135.798474 -105.76340806 135.798474 -104 130 C-99.57699953 130.40397428 -97.42918263 133.41568247 -94.6875 136.5625 C-94.19967041 137.10535645 -93.71184082 137.64821289 -93.20922852 138.20751953 C-91.11037614 140.55270304 -89.06405065 142.92123853 -87.078125 145.36328125 C-82.78463483 150.627918 -78.06248636 153.93951653 -72 157 C-71.21882813 157.40476563 -70.43765625 157.80953125 -69.6328125 158.2265625 C-65.91818996 159.31780176 -63.69862532 159.16710311 -60 158 C-58.23390541 155.4486296 -57.1178001 153.42876829 -55.9375 150.625 C-55.26314859 149.15819596 -54.58736035 147.69205167 -53.91015625 146.2265625 C-53.42506592 145.1442334 -53.42506592 145.1442334 -52.93017578 144.04003906 C-49.74102319 137.0456666 -45.97046218 130.58213204 -41.19921875 124.55859375 C-38.22557794 120.69382931 -38.5253572 116.6652391 -39 112 C-40.36786164 105.91301571 -42.026716 99.919852 -44 94 C-44.03954234 91.66700175 -44.04401732 89.33291811 -44 87 C-42.97777344 86.46117188 -41.95554688 85.92234375 -40.90234375 85.3671875 C-29.50933794 78.82988821 -21.41358185 67.72142501 -16 56 C-15.54850586 55.02498535 -15.54850586 55.02498535 -15.08789062 54.03027344 C-9.56445024 41.740913 -6.53313747 28.89031263 -3.61816406 15.77929688 C-2.81297472 12.1591249 -1.96870476 8.54887177 -1.125 4.9375 C-0.74875112 3.29195172 -0.3731093 1.64626298 0 0 Z " fill="#FEFEFE" transform="translate(264,32)"/>
<path d="M0 0 C4.7334375 -0.061875 4.7334375 -0.061875 9.5625 -0.125 C10.5429126 -0.14320801 11.5233252 -0.16141602 12.53344727 -0.18017578 C17.75651657 -0.21300862 22.0931252 0.15589199 27 2 C30.05500197 5.05500197 29.97710549 7.33605916 30.125 11.625 C30 15 30 15 29 17 C28.34 17 27.68 17 27 17 C26.855625 17.639375 26.71125 18.27875 26.5625 18.9375 C26 21 26 21 25 22 C23.14630389 22.08737645 21.28932459 22.10698153 19.43359375 22.09765625 C18.30888672 22.09443359 17.18417969 22.09121094 16.02539062 22.08789062 C14.84138672 22.07951172 13.65738281 22.07113281 12.4375 22.0625 C11.24962891 22.05798828 10.06175781 22.05347656 8.83789062 22.04882812 C5.89190588 22.03699686 2.94594684 22.01906076 0 22 C0 14.74 0 7.48 0 0 Z " fill="#F1F1F1" transform="translate(240,559)"/>
<path d="M0 0 C3.05595801 2.50032928 2.9941439 3.95388321 3.5 7.9375 C3.37723668 11.40717916 3.01250336 11.98445528 0.6875 14.875 C-4.08448342 18.6481962 -7.0568361 19.33893756 -13 19.3125 C-14.08667969 19.33666992 -14.08667969 19.33666992 -15.1953125 19.36132812 C-20.47480774 19.36619851 -20.47480774 19.36619851 -23 17.60546875 C-24 16 -24 16 -24 14 C-25.32 13.67 -26.64 13.34 -28 13 C-28.92060399 2.15733074 -28.92060399 2.15733074 -25.8125 -1.75 C-18.19449746 -5.30627133 -7.28022484 -3.76226384 0 0 Z " fill="#F0F0F0" transform="translate(415,514)"/>
<path d="M0 0 C1.11181641 0.01289062 2.22363281 0.02578125 3.36914062 0.0390625 C5.09487305 0.08933594 5.09487305 0.08933594 6.85546875 0.140625 C8.02529297 0.15867187 9.19511719 0.17671875 10.40039062 0.1953125 C13.28208655 0.2423606 16.16210672 0.30808791 19.04296875 0.390625 C19.04296875 1.050625 19.04296875 1.710625 19.04296875 2.390625 C16.0152756 3.25174016 13.20030238 3.57293393 10.05859375 3.70703125 C8.65673828 3.76987305 8.65673828 3.76987305 7.2265625 3.83398438 C6.25847656 3.87330078 5.29039062 3.91261719 4.29296875 3.953125 C2.81763672 4.01790039 2.81763672 4.01790039 1.3125 4.08398438 C-1.110544 4.18984552 -3.53368665 4.29192671 -5.95703125 4.390625 C-6.28703125 5.380625 -6.61703125 6.370625 -6.95703125 7.390625 C-0.35703125 7.720625 6.24296875 8.050625 13.04296875 8.390625 C13.37296875 9.710625 13.70296875 11.030625 14.04296875 12.390625 C11.80649244 13.50886315 10.39405346 13.58458561 7.91015625 13.70703125 C6.70166016 13.76987305 6.70166016 13.76987305 5.46875 13.83398438 C4.62699219 13.87330078 3.78523438 13.91261719 2.91796875 13.953125 C2.06847656 13.99630859 1.21898437 14.03949219 0.34375 14.08398438 C-1.75631348 14.19016736 -3.85665073 14.29090997 -5.95703125 14.390625 C-3.09280451 15.19387678 -0.45010165 15.55386803 2.51953125 15.671875 C3.35484375 15.70925781 4.19015625 15.74664063 5.05078125 15.78515625 C6.80337278 15.85578307 8.55597711 15.92609279 10.30859375 15.99609375 C11.14132812 16.03347656 11.9740625 16.07085938 12.83203125 16.109375 C13.59209473 16.13966797 14.3521582 16.16996094 15.13525391 16.20117188 C17.04296875 16.390625 17.04296875 16.390625 19.04296875 17.390625 C18.71296875 18.710625 18.38296875 20.030625 18.04296875 21.390625 C10.12296875 21.390625 2.20296875 21.390625 -5.95703125 21.390625 C-6.61703125 20.070625 -7.27703125 18.750625 -7.95703125 17.390625 C-9.99062605 16.12257934 -9.99062605 16.12257934 -11.95703125 15.390625 C-11.95703125 14.730625 -11.95703125 14.070625 -11.95703125 13.390625 C-10.30703125 13.060625 -8.65703125 12.730625 -6.95703125 12.390625 C-7.28703125 11.400625 -7.61703125 10.410625 -7.95703125 9.390625 C-9.97211483 8.65738704 -9.97211483 8.65738704 -11.95703125 8.390625 C-11.63617202 5.39593886 -10.97883031 4.41180109 -8.77856445 2.27441406 C-5.49902718 0.08483981 -3.89657946 -0.07992984 0 0 Z " fill="#F0F0F0" transform="translate(286.95703125,559.609375)"/>
<path d="M0 0 C17.12707182 -0.51381215 17.12707182 -0.51381215 23 4.625 C23.66 5.40875 24.32 6.1925 25 7 C24.67 7.66 24.34 8.32 24 9 C23.01 9.33 22.02 9.66 21 10 C21 10.99 21 11.98 21 13 C22.32 13.66 23.64 14.32 25 15 C25 16.98 25 18.96 25 21 C23.68 21.33 22.36 21.66 21 22 C20.34 19.69 19.68 17.38 19 15 C12.4 15 5.8 15 -1 15 C-1.66 17.31 -2.32 19.62 -3 22 C-3.99 22 -4.98 22 -6 22 C-6.33 19.69 -6.66 17.38 -7 15 C-5.35 14.34 -3.7 13.68 -2 13 C-3.13304992 9.60085025 -4.12518475 8.94745549 -7 7 C-6.67 6.01 -6.34 5.02 -6 4 C-2 6 -2 6 -0.3671875 7.05078125 C3.08016936 8.43313722 6.4681383 8.32885448 10.125 8.3125 C11.21748047 8.33666992 11.21748047 8.33666992 12.33203125 8.36132812 C14.69045736 8.3996406 14.69045736 8.3996406 18 8 C18.66 7.01 19.32 6.02 20 5 C19.43490723 4.97494385 18.86981445 4.9498877 18.28759766 4.92407227 C15.73316258 4.80820044 13.1791045 4.68543463 10.625 4.5625 C9.73554688 4.52318359 8.84609375 4.48386719 7.9296875 4.44335938 C7.07890625 4.40146484 6.228125 4.35957031 5.3515625 4.31640625 C4.56604004 4.27974854 3.78051758 4.24309082 2.97119141 4.20532227 C1 4 1 4 -1 3 C-0.67 2.01 -0.34 1.02 0 0 Z " fill="#F2F2F2" transform="translate(175,559)"/>
<path d="M0 0 C2.15478516 -0.34057617 2.15478516 -0.34057617 4.7890625 -0.29296875 C5.73007813 -0.28330078 6.67109375 -0.27363281 7.640625 -0.26367188 C9.11789063 -0.2259668 9.11789063 -0.2259668 10.625 -0.1875 C12.11386719 -0.16719727 12.11386719 -0.16719727 13.6328125 -0.14648438 C16.08877161 -0.11106189 18.54445282 -0.05725369 21 0 C21 4.29 21 8.58 21 13 C13.41 13 5.82 13 -2 13 C-2 3 -2 3 0 0 Z " fill="#030303" transform="translate(245,563)"/>
<path d="M0 0 C4.04142215 -0.11662261 8.08240865 -0.1873935 12.125 -0.25 C13.26710938 -0.28351562 14.40921875 -0.31703125 15.5859375 -0.3515625 C25.09447936 -0.46212694 25.09447936 -0.46212694 28.8046875 1.828125 C29.52914063 2.54484375 30.25359375 3.2615625 31 4 C31 4.99 31 5.98 31 7 C29.02 7.99 29.02 7.99 27 9 C27 9.99 27 10.98 27 12 C28.32 12.66 29.64 13.32 31 14 C31 15.98 31 17.96 31 20 C29.68 20.33 28.36 20.66 27 21 C26.34 18.69 25.68 16.38 25 14 C18.4 13.67 11.8 13.34 5 13 C4.67 15.31 4.34 17.62 4 20 C2.68 20 1.36 20 0 20 C0 17.69 0 15.38 0 13 C0.99 12.67 1.98 12.34 3 12 C3.33 11.01 3.66 10.02 4 9 C6.34938888 7.82530556 7.95073205 7.79965111 10.5703125 7.68359375 C11.46621094 7.64169922 12.36210937 7.59980469 13.28515625 7.55664062 C14.22230469 7.51732422 15.15945313 7.47800781 16.125 7.4375 C17.06988281 7.39431641 18.01476562 7.35113281 18.98828125 7.30664062 C21.32537092 7.20040928 23.6625683 7.09836824 26 7 C25.67 6.01 25.34 5.02 25 4 C17.08 3.67 9.16 3.34 1 3 C0.67 2.01 0.34 1.02 0 0 Z " fill="#F4F4F4" transform="translate(382,560)"/>
<path d="M0 0 C1.32 0 2.64 0 4 0 C4.66 0.99 5.32 1.98 6 3 C8.84779347 3.33312698 11.52132225 3.51272655 14.375 3.5625 C23.65456472 3.77269148 23.65456472 3.77269148 27 6 C26.67 6.99 26.34 7.98 26 9 C19.34362157 10.23839599 12.7528064 10.09139136 6 10 C6 10.66 6 11.32 6 12 C6.86951294 12.029729 6.86951294 12.029729 7.7565918 12.06005859 C10.40065937 12.15572601 13.0439817 12.26523453 15.6875 12.375 C16.59951172 12.4059375 17.51152344 12.436875 18.45117188 12.46875 C23.01203631 12.66776954 26.86190275 12.85690122 31 15 C31 15.66 31 16.32 31 17 C26.83884532 18.38705156 22.92034238 18.18424545 18.5625 18.1875 C17.70333984 18.19974609 16.84417969 18.21199219 15.95898438 18.22460938 C14.7127832 18.22750977 14.7127832 18.22750977 13.44140625 18.23046875 C12.68545166 18.23457764 11.92949707 18.23868652 11.15063477 18.24291992 C8.68860399 17.96482699 7.09764992 17.30518527 5 16 C4.67 15.34 4.34 14.68 4 14 C1.98330173 12.86649466 1.98330173 12.86649466 0 12 C0 11.34 0 10.68 0 10 C1.32 9.34 2.64 8.68 4 8 C4 7.01 4 6.02 4 5 C2.68 4.34 1.36 3.68 0 3 C0 2.01 0 1.02 0 0 Z " fill="#E6E6E6" transform="translate(208,515)"/>
<path d="M0 0 C2.86724686 0.57344937 3.8614515 0.8614515 6 3 C8.83571122 3.28211691 11.59529896 3.46627354 14.4375 3.5625 C22.64826128 3.88275376 22.64826128 3.88275376 26 5 C26 6.32 26 7.64 26 9 C19.34362157 10.23839599 12.7528064 10.09139136 6 10 C6 10.66 6 11.32 6 12 C7.71896484 12.09087891 7.71896484 12.09087891 9.47265625 12.18359375 C11.00261297 12.26806989 12.53256041 12.35271427 14.0625 12.4375 C14.81466797 12.47681641 15.56683594 12.51613281 16.34179688 12.55664062 C20.94698741 12.81580719 25.44366724 13.2799421 30 14 C30.33 14.99 30.66 15.98 31 17 C26.83884532 18.38705156 22.92034238 18.18424545 18.5625 18.1875 C17.70333984 18.19974609 16.84417969 18.21199219 15.95898438 18.22460938 C14.7127832 18.22750977 14.7127832 18.22750977 13.44140625 18.23046875 C12.68545166 18.23457764 11.92949707 18.23868652 11.15063477 18.24291992 C8.68860399 17.96482699 7.09764992 17.30518527 5 16 C4.67 15.34 4.34 14.68 4 14 C1.98330173 12.86649466 1.98330173 12.86649466 0 12 C0.33 11.01 0.66 10.02 1 9 C1.99 8.67 2.98 8.34 4 8 C4 7.34 4 6.68 4 6 C3.34 5.525625 2.68 5.05125 2 4.5625 C1.34 4.046875 0.68 3.53125 0 3 C0 2.01 0 1.02 0 0 Z " fill="#E6E6E6" transform="translate(50,515)"/>
<path d="M0 0 C1.04220703 -0.02900391 2.08441406 -0.05800781 3.15820312 -0.08789062 C9.36079634 -0.13915173 13.13396359 0.0854696 17.8125 4.3125 C19.1875 6.5625 19.1875 6.5625 19.8125 8.3125 C18.884375 8.43625 18.884375 8.43625 17.9375 8.5625 C17.23625 8.81 16.535 9.0575 15.8125 9.3125 C15.53293457 9.97088867 15.25336914 10.62927734 14.96533203 11.30761719 C13.8125 13.3125 13.8125 13.3125 11.74951172 13.95019531 C10.50838623 14.04445801 10.50838623 14.04445801 9.2421875 14.140625 C8.34628906 14.21796875 7.45039063 14.2953125 6.52734375 14.375 C5.59019531 14.436875 4.65304688 14.49875 3.6875 14.5625 C2.74261719 14.63984375 1.79773438 14.7171875 0.82421875 14.796875 C-1.51223437 14.98567929 -3.84864637 15.15678742 -6.1875 15.3125 C-6.8475 17.6225 -7.5075 19.9325 -8.1875 22.3125 C-9.5075 21.6525 -10.8275 20.9925 -12.1875 20.3125 C-12.3125 17.9375 -12.3125 17.9375 -12.1875 15.3125 C-11.5275 14.6525 -10.8675 13.9925 -10.1875 13.3125 C-9.1975 13.3125 -8.2075 13.3125 -7.1875 13.3125 C-6.8575 11.9925 -6.5275 10.6725 -6.1875 9.3125 C0.4125 8.6525 7.0125 7.9925 13.8125 7.3125 C13.8125 6.6525 13.8125 5.9925 13.8125 5.3125 C13.09594238 5.2623877 12.37938477 5.21227539 11.64111328 5.16064453 C8.40581615 4.92906426 5.17173408 4.68346332 1.9375 4.4375 C0.80957031 4.35886719 -0.31835938 4.28023437 -1.48046875 4.19921875 C-2.55683594 4.11542969 -3.63320312 4.03164063 -4.7421875 3.9453125 C-5.73718262 3.87199707 -6.73217773 3.79868164 -7.75732422 3.72314453 C-10.1875 3.3125 -10.1875 3.3125 -12.1875 1.3125 C-9.71806675 -1.15693325 -3.31276842 0.03017093 0 0 Z " fill="#E8E8E8" transform="translate(140.1875,510.6875)"/>
<path d="M0 0 C1.32 0 2.64 0 4 0 C4.33 0.99 4.66 1.98 5 3 C7.23647631 4.11823815 8.64891529 4.19396061 11.1328125 4.31640625 C11.93847656 4.35830078 12.74414062 4.40019531 13.57421875 4.44335938 C14.41597656 4.48267578 15.25773437 4.52199219 16.125 4.5625 C16.97449219 4.60568359 17.82398438 4.64886719 18.69921875 4.69335938 C20.79928223 4.79954236 22.89961948 4.90028497 25 5 C25 6.32 25 7.64 25 9 C22.703463 10.1482685 21.41686833 10.11561175 18.8671875 10.09765625 C18.06152344 10.09443359 17.25585938 10.09121094 16.42578125 10.08789062 C15.58402344 10.07951172 14.74226563 10.07113281 13.875 10.0625 C13.02550781 10.05798828 12.17601562 10.05347656 11.30078125 10.04882812 C9.20049091 10.03702874 7.1002367 10.01909306 5 10 C5 10.66 5 11.32 5 12 C6.07483643 12.08302368 6.07483643 12.08302368 7.17138672 12.16772461 C10.40627677 12.42001558 13.64062633 12.67867668 16.875 12.9375 C18.56689453 13.06801758 18.56689453 13.06801758 20.29296875 13.20117188 C21.36933594 13.28818359 22.44570313 13.37519531 23.5546875 13.46484375 C24.54968262 13.543396 25.54467773 13.62194824 26.56982422 13.70288086 C29 14 29 14 31 15 C31 15.66 31 16.32 31 17 C26.40219441 18.53260186 21.8164478 18.26642429 17 18.3125 C15.989375 18.34150391 14.97875 18.37050781 13.9375 18.40039062 C12.968125 18.40876953 11.99875 18.41714844 11 18.42578125 C10.113125 18.44036377 9.22625 18.45494629 8.3125 18.4699707 C5.24639676 17.84684478 4.70639611 16.5265691 3 14 C2.01 13.67 1.02 13.34 0 13 C0 12.01 0 11.02 0 10 C0.99 9.67 1.98 9.34 3 9 C3.73323796 6.98491642 3.73323796 6.98491642 4 5 C2.68 4.67 1.36 4.34 0 4 C0 2.68 0 1.36 0 0 Z " fill="#F1F1F1" transform="translate(347,563)"/>
<path d="M0 0 C0 0.66 0 1.32 0 2 C1.65 2.66 3.3 3.32 5 4 C5.02691685 6.45840605 5.04679802 8.91651882 5.0625 11.375 C5.07087891 12.07367187 5.07925781 12.77234375 5.08789062 13.4921875 C5.11328125 18.7734375 5.11328125 18.7734375 4 21 C2.046875 20.4765625 2.046875 20.4765625 0 19 C-0.47216383 16.3062448 -0.69427756 14.07412666 -0.75 11.375 C-0.8325 8.94125 -0.915 6.5075 -1 4 C-7.6 3.67 -14.2 3.34 -21 3 C-20.95875 4.85625 -20.9175 6.7125 -20.875 8.625 C-20.8642901 13.15528745 -21.1327441 16.79867422 -23 21 C-23.99 20.67 -24.98 20.34 -26 20 C-27.74243716 14.77268851 -27.38895142 10.39564921 -25.9375 5.1875 C-24.06267497 2.10311043 -22.86288386 0.63031872 -19.44140625 -0.57421875 C-13.85132242 -1.54912937 -5.12496746 -2.56248373 0 0 Z " fill="#EFEFEF" transform="translate(448,512)"/>
<path d="M0 0 C6.93 0 13.86 0 21 0 C21 3.96 21 7.92 21 12 C14.07 12 7.14 12 0 12 C0 8.04 0 4.08 0 0 Z " fill="#000000" transform="translate(392,515)"/>
<path d="M0 0 C1.32 0.66 2.64 1.32 4 2 C4 2.33 4 2.66 4 3 C5.75376953 3.09087891 5.75376953 3.09087891 7.54296875 3.18359375 C9.09115614 3.26804034 10.63933268 3.35268625 12.1875 3.4375 C12.95642578 3.47681641 13.72535156 3.51613281 14.51757812 3.55664062 C18.43251075 3.77507034 22.17120688 4.08692108 26 5 C25.67 5.99 25.34 6.98 25 8 C16.65667456 9.19190363 8.40676978 9.09283549 0 9 C0 10.32 0 11.64 0 13 C0.83978394 12.99214478 0.83978394 12.99214478 1.6965332 12.98413086 C4.23517737 12.96333309 6.77380359 12.95033096 9.3125 12.9375 C10.63411133 12.92493164 10.63411133 12.92493164 11.98242188 12.91210938 C12.82998047 12.90888672 13.67753906 12.90566406 14.55078125 12.90234375 C15.33106689 12.89710693 16.11135254 12.89187012 16.9152832 12.88647461 C19 13 19 13 22 14 C21.67 14.99 21.34 15.98 21 17 C14.96135987 19.01288004 8.26322471 18.79241203 2 18 C-0.98338027 16.20515993 -2.81883654 14.30301398 -4 11 C-3.67 10.01 -3.34 9.02 -3 8 C-2.34 8 -1.68 8 -1 8 C-1.020625 6.865625 -1.04125 5.73125 -1.0625 4.5625 C-1 1 -1 1 0 0 Z " fill="#D7D7D7" transform="translate(462,506)"/>
<path d="M0 0 C3.00056084 -0.08166849 5.9988539 -0.14081551 9 -0.1875 C9.83917969 -0.21263672 10.67835938 -0.23777344 11.54296875 -0.26367188 C17.38731398 -0.33162938 21.70747451 0.44996499 27 3 C28 5.6875 28 5.6875 28 8 C27.01 8.495 27.01 8.495 26 9 C25.34786708 11.02463255 25.34786708 11.02463255 25 13 C25.99 13.33 26.98 13.66 28 14 C28 16.31 28 18.62 28 21 C27.01 21 26.02 21 25 21 C24.67 19.02 24.34 17.04 24 15 C17.4 14.34 10.8 13.68 4 13 C4 11.68 4 10.36 4 9 C10.6 8.34 17.2 7.68 24 7 C24 6.34 24 5.68 24 5 C21.04491553 4.16628641 18.29890387 3.82110466 15.234375 3.68359375 C14.34492188 3.64169922 13.45546875 3.59980469 12.5390625 3.55664062 C11.61867187 3.51732422 10.69828125 3.47800781 9.75 3.4375 C8.81414062 3.39431641 7.87828125 3.35113281 6.9140625 3.30664062 C4.60951359 3.2008195 2.30486161 3.09873443 0 3 C0 2.01 0 1.02 0 0 Z " fill="#EDEDED" transform="translate(175,511)"/>
<path d="M0 0 C0.88945312 0.00322266 1.77890625 0.00644531 2.6953125 0.00976562 C4.07589844 0.02233398 4.07589844 0.02233398 5.484375 0.03515625 C6.42023438 0.03966797 7.35609375 0.04417969 8.3203125 0.04882812 C10.62506541 0.06058707 12.92968727 0.07702199 15.234375 0.09765625 C15.234375 1.08765625 15.234375 2.07765625 15.234375 3.09765625 C12.23730805 3.96728712 9.58480974 4.21528724 6.46875 4.1953125 C5.57929688 4.19208984 4.68984375 4.18886719 3.7734375 4.18554688 C2.85304688 4.17716797 1.93265625 4.16878906 0.984375 4.16015625 C0.04851562 4.15564453 -0.88734375 4.15113281 -1.8515625 4.14648438 C-4.15631541 4.13472543 -6.46093727 4.11829051 -8.765625 4.09765625 C-8.435625 4.75765625 -8.105625 5.41765625 -7.765625 6.09765625 C-5.73741993 6.66006567 -5.73741993 6.66006567 -3.29296875 6.94921875 C-1.94428711 7.14257812 -1.94428711 7.14257812 -0.56835938 7.33984375 C0.84993164 7.52933594 0.84993164 7.52933594 2.296875 7.72265625 C3.24626953 7.85671875 4.19566406 7.99078125 5.17382812 8.12890625 C7.52633845 8.45991273 9.87970594 8.78243697 12.234375 9.09765625 C12.234375 10.08765625 12.234375 11.07765625 12.234375 12.09765625 C8.44388466 13.28399292 4.74991471 13.33571844 0.796875 13.41015625 C-1.15025391 13.46623047 -1.15025391 13.46623047 -3.13671875 13.5234375 C-7.29796869 13.03519612 -8.88518757 12.08096645 -11.765625 9.09765625 C-12.578125 6.34765625 -12.578125 6.34765625 -12.765625 4.09765625 C-8.57136474 0.65237104 -5.36012367 -0.03435977 0 0 Z " fill="#F1F1F1" transform="translate(312.765625,510.90234375)"/>
<path d="M0 0 C1.32 0.66 2.64 1.32 4 2 C4 6.95 4 11.9 4 17 C10.6 17 17.2 17 24 17 C24.33 18.32 24.66 19.64 25 21 C21.85694562 22.57152719 18.508726 22.14318589 15.0625 22.125 C14.33353516 22.12886719 13.60457031 22.13273438 12.85351562 22.13671875 C9.64142264 22.1308304 7.0678556 22.02261853 4 21 C3.67 20.01 3.34 19.02 3 18 C2.01 17.67 1.02 17.34 0 17 C-1.49341703 14.01316593 -1.13175178 11.25600226 -1.125 7.9375 C-1.12757813 6.66777344 -1.13015625 5.39804687 -1.1328125 4.08984375 C-1 1 -1 1 0 0 Z " fill="#ECECEC" transform="translate(356,511)"/>
<path d="M0 0 C4 1 4 1 5.84716797 1.51757812 C8.16651722 2.03731436 10.3209694 2.19181371 12.6953125 2.28125 C13.57574219 2.31863281 14.45617187 2.35601563 15.36328125 2.39453125 C17.21222823 2.46514167 19.06118671 2.53545167 20.91015625 2.60546875 C22.22693359 2.66154297 22.22693359 2.66154297 23.5703125 2.71875 C24.77324951 2.76418945 24.77324951 2.76418945 26.00048828 2.81054688 C28 3 28 3 30 4 C29.67 4.99 29.34 5.98 29 7 C25.42501484 8.19166172 22.51861586 8.1325072 18.75 8.125 C17.46609375 8.12757813 16.1821875 8.13015625 14.859375 8.1328125 C5.03305785 7.79465989 5.03305785 7.79465989 1.5625 5.125 C0 3 0 3 0 0 Z " fill="#F2F2F2" transform="translate(458,525)"/>
<path d="M0 0 C3.11157256 0.88902073 4.86369425 1.50705535 7.0625 3.875 C7.625 6.3125 7.625 6.3125 7.0625 8.875 C4.61010041 11.46753671 2.95867209 12.70430056 -0.5625 13.375 C-2.9375 12.875 -2.9375 12.875 -4.75 11.25 C-6.27014845 8.2097031 -6.36638292 6.23458291 -5.9375 2.875 C-4.22787509 -0.06935401 -3.41448149 -0.14529708 0 0 Z " fill="#F2F2F2" transform="translate(475.9375,586.125)"/>
<path d="M0 0 C6.27 0 12.54 0 19 0 C19.33 1.32 19.66 2.64 20 4 C17.76352369 5.11823815 16.35108471 5.19396061 13.8671875 5.31640625 C13.06152344 5.35830078 12.25585938 5.40019531 11.42578125 5.44335938 C10.58402344 5.48267578 9.74226563 5.52199219 8.875 5.5625 C8.02550781 5.60568359 7.17601562 5.64886719 6.30078125 5.69335938 C4.20071777 5.79954236 2.10038052 5.90028497 0 6 C-0.66 8.31 -1.32 10.62 -2 13 C-2.66 13 -3.32 13 -4 13 C-4 10.36 -4 7.72 -4 5 C-3.34 4.67 -2.68 4.34 -2 4 C-1.34 2.68 -0.68 1.36 0 0 Z " fill="#EFEFEF" transform="translate(316,568)"/>
<path d="M0 0 C0 0.66 0 1.32 0 2 C-2.76565382 2.92188461 -4.38283702 3.11785222 -7.23046875 3.09765625 C-8.03291016 3.09443359 -8.83535156 3.09121094 -9.66210938 3.08789062 C-10.49548828 3.07951172 -11.32886719 3.07113281 -12.1875 3.0625 C-13.03248047 3.05798828 -13.87746094 3.05347656 -14.74804688 3.04882812 C-16.83206155 3.03705403 -18.91603977 3.0191189 -21 3 C-20.97679687 4.13179687 -20.95359375 5.26359375 -20.9296875 6.4296875 C-20.91093099 7.91145175 -20.89273066 9.39322312 -20.875 10.875 C-20.85824219 11.62136719 -20.84148437 12.36773438 -20.82421875 13.13671875 C-20.8066041 15.09194461 -20.89679811 17.04742021 -21 19 C-21.66 19.66 -22.32 20.32 -23 21 C-24.96476237 19.03523763 -24.18499562 15.36468224 -24.1875 12.6875 C-24.19974609 12.01009766 -24.21199219 11.33269531 -24.22460938 10.63476562 C-24.24437193 3.89573539 -24.24437193 3.89573539 -22 1 C-15.70046211 -1.87823714 -6.50390854 -2.16796951 0 0 Z " fill="#D4D4D4" transform="translate(229,560)"/>
<path d="M0 0 C0 0.99 0 1.98 0 3 C-3.67761331 4.17683626 -7.16669708 4.03578346 -11 4 C-10.96519531 5.13179687 -10.93039063 6.26359375 -10.89453125 7.4296875 C-10.86639664 8.91144353 -10.83909613 10.39321556 -10.8125 11.875 C-10.77479492 12.99455078 -10.77479492 12.99455078 -10.73632812 14.13671875 C-10.70703125 16.3046875 -10.70703125 16.3046875 -11 20 C-11.99 20.66 -12.98 21.32 -14 22 C-16.67151851 19.32848149 -16.29873672 17.90817468 -16.3125 14.1875 C-16.32925781 13.14980469 -16.34601563 12.11210938 -16.36328125 11.04296875 C-15.83664317 6.63166695 -14.20822051 4.00109699 -10.8125 1.1875 C-6.99929306 -0.42252071 -4.12026387 -0.20950494 0 0 Z " fill="#E8E8E8" transform="translate(101,511)"/>
<path d="M0 0 C0.99 0.33 1.98 0.66 3 1 C5.56634861 1.22718496 8.11678107 1.41608184 10.6875 1.5625 C11.38939453 1.60568359 12.09128906 1.64886719 12.81445312 1.69335938 C14.54275206 1.7991736 16.2713511 1.90006581 18 2 C18 2.33 18 2.66 18 3 C12.06 3 6.12 3 0 3 C0.04125 4.85625 0.0825 6.7125 0.125 8.625 C0.1357099 13.15528745 -0.1327441 16.79867422 -2 21 C-2.99 20.67 -3.98 20.34 -5 20 C-6.69873108 14.90380677 -6.67173165 10.09077344 -4.6875 5.125 C-3 2 -3 2 0 0 Z " fill="#EAEAEA" transform="translate(427,512)"/>
<path d="M0 0 C0.99 0 1.98 0 3 0 C3.33 0.99 3.66 1.98 4 3 C4.55985596 3.02505615 5.11971191 3.0501123 5.6965332 3.07592773 C8.23541305 3.19203745 10.77393553 3.3146958 13.3125 3.4375 C14.19357422 3.47681641 15.07464844 3.51613281 15.98242188 3.55664062 C16.82998047 3.59853516 17.67753906 3.64042969 18.55078125 3.68359375 C19.33106689 3.72025146 20.11135254 3.75690918 20.9152832 3.79467773 C23 4 23 4 26 5 C25.67 5.99 25.34 6.98 25 8 C18.96496563 10.01167812 12.25941207 9.79907388 6 9 C3.04839545 7.15464331 1.38529706 5.18906927 0 2 C0 1.34 0 0.68 0 0 Z " fill="#E8E8E8" transform="translate(458,515)"/>
<path d="M0 0 C1.5631897 0.00785522 1.5631897 0.00785522 3.15795898 0.01586914 C4.28266602 0.0190918 5.40737305 0.02231445 6.56616211 0.02563477 C7.75016602 0.03401367 8.93416992 0.04239258 10.15405273 0.05102539 C11.34192383 0.05553711 12.52979492 0.06004883 13.75366211 0.06469727 C16.69967499 0.07652864 19.64558954 0.09301252 22.59155273 0.11352539 C22.59155273 0.44352539 22.59155273 0.77352539 22.59155273 1.11352539 C15.66155273 1.11352539 8.73155273 1.11352539 1.59155273 1.11352539 C1.59155273 5.07352539 1.59155273 9.03352539 1.59155273 13.11352539 C8.52155273 13.11352539 15.45155273 13.11352539 22.59155273 13.11352539 C22.59155273 13.44352539 22.59155273 13.77352539 22.59155273 14.11352539 C18.44573387 14.1423929 14.29994057 14.16027867 10.15405273 14.17602539 C8.37804687 14.18859375 8.37804687 14.18859375 6.56616211 14.20141602 C5.44145508 14.20463867 4.31674805 14.20786133 3.15795898 14.21118164 C1.59476929 14.21903687 1.59476929 14.21903687 0 14.22705078 C-2.40844727 14.11352539 -2.40844727 14.11352539 -3.40844727 13.11352539 C-3.50718543 11.11552967 -3.53816526 9.11395381 -3.53344727 7.11352539 C-3.53602539 6.02040039 -3.53860352 4.92727539 -3.54125977 3.80102539 C-3.36124813 0.15843694 -3.36124813 0.15843694 0 0 Z " fill="#5D5D5D" transform="translate(390.408447265625,513.886474609375)"/>
<path d="M0 0 C0.99 0.33 1.98 0.66 3 1 C3.06058594 1.67546875 3.12117187 2.3509375 3.18359375 3.046875 C3.26738281 3.93890625 3.35117188 4.8309375 3.4375 5.75 C3.55931641 7.07257812 3.55931641 7.07257812 3.68359375 8.421875 C3.97871177 11.2620811 3.97871177 11.2620811 5 15 C8.3 15.66 11.6 16.32 15 17 C15 18.32 15 19.64 15 21 C6.96904441 21.78734859 6.96904441 21.78734859 3 18.5625 C2.34 17.716875 1.68 16.87125 1 16 C0.67 15.67 0.34 15.34 0 15 C-0.07313567 12.46950598 -0.09247527 9.96695163 -0.0625 7.4375 C-0.05798828 6.72658203 -0.05347656 6.01566406 -0.04882812 5.28320312 C-0.03700864 3.52209987 -0.01907263 1.76103964 0 0 Z " fill="#EFEFEF" transform="translate(127,560)"/>
<path d="M0 0 C0.99 0 1.98 0 3 0 C3 4.95 3 9.9 3 15 C1.02 15.99 1.02 15.99 -1 17 C-1.66 18.32 -2.32 19.64 -3 21 C-5.97 21 -8.94 21 -12 21 C-12 19.68 -12 18.36 -12 17 C-11.28972656 16.80664062 -10.57945312 16.61328125 -9.84765625 16.4140625 C-8.92855469 16.15367187 -8.00945312 15.89328125 -7.0625 15.625 C-6.14597656 15.36976563 -5.22945312 15.11453125 -4.28515625 14.8515625 C-1.83254913 14.23339896 -1.83254913 14.23339896 -1 12 C-0.77141886 9.9625237 -0.58975722 7.91959697 -0.4375 5.875 C-0.35371094 4.77929688 -0.26992187 3.68359375 -0.18359375 2.5546875 C-0.12300781 1.71164062 -0.06242188 0.86859375 0 0 Z " fill="#EFEFEF" transform="translate(160,560)"/>
<path d="M0 0 C3.29164829 -0.02895225 6.58326399 -0.0467823 9.875 -0.0625 C10.81214844 -0.07087891 11.74929688 -0.07925781 12.71484375 -0.08789062 C14.05869141 -0.09272461 14.05869141 -0.09272461 15.4296875 -0.09765625 C16.67081299 -0.10551147 16.67081299 -0.10551147 17.93701172 -0.11352539 C20 0 20 0 22 1 C21 4 21 4 19 5 C16.15495432 5.12432618 13.34512848 5.1851641 10.5 5.1875 C9.71496094 5.19974609 8.92992187 5.21199219 8.12109375 5.22460938 C6.07936274 5.22986254 4.03807749 5.1222018 2 5 C1.34 4.34 0.68 3.68 0 3 C0 2.01 0 1.02 0 0 Z " fill="#ECECEC" transform="translate(268,528)"/>
<path d="M0 0 C0.88945312 0.00322266 1.77890625 0.00644531 2.6953125 0.00976562 C4.07589844 0.02233398 4.07589844 0.02233398 5.484375 0.03515625 C6.42023438 0.03966797 7.35609375 0.04417969 8.3203125 0.04882812 C10.62506541 0.06058707 12.92968727 0.07702199 15.234375 0.09765625 C15.234375 1.08765625 15.234375 2.07765625 15.234375 3.09765625 C12.23730805 3.96728712 9.58480974 4.21528724 6.46875 4.1953125 C5.57929688 4.19208984 4.68984375 4.18886719 3.7734375 4.18554688 C2.85304688 4.17716797 1.93265625 4.16878906 0.984375 4.16015625 C0.04851562 4.15564453 -0.88734375 4.15113281 -1.8515625 4.14648438 C-4.15631541 4.13472543 -6.46093727 4.11829051 -8.765625 4.09765625 C-9.095625 4.75765625 -9.425625 5.41765625 -9.765625 6.09765625 C-10.755625 5.43765625 -11.745625 4.77765625 -12.765625 4.09765625 C-8.57136474 0.65237104 -5.36012367 -0.03435977 0 0 Z " fill="#E8E8E8" transform="translate(312.765625,510.90234375)"/>
<path d="M0 0 C0.33 0.99 0.66 1.98 1 3 C-2.67410785 4.17571451 -6.16929183 4.07366746 -10 4 C-9.98839844 4.89203125 -9.97679688 5.7840625 -9.96484375 6.703125 C-9.95130859 8.45882812 -9.95130859 8.45882812 -9.9375 10.25 C-9.92589844 11.41015625 -9.91429688 12.5703125 -9.90234375 13.765625 C-9.98217908 16.40977128 -10.21356222 18.49826091 -11 21 C-11.66 21 -12.32 21 -13 21 C-15.26563988 16.46872025 -14.27566553 10.37832764 -13.3125 5.5625 C-10.35859177 -0.20465416 -6.02611772 -0.35447751 0 0 Z " fill="#CDCDCD" transform="translate(117,511)"/>
<path d="M0 0 C0.71542969 0.00580078 1.43085938 0.01160156 2.16796875 0.01757812 C5.89905802 0.10475311 7.70827881 0.32635254 10.875 2.4375 C9.875 3.4375 9.875 3.4375 7.92553711 3.55102539 C7.0928833 3.54578857 6.26022949 3.54055176 5.40234375 3.53515625 C4.50322266 3.53193359 3.60410156 3.52871094 2.67773438 3.52539062 C1.73220703 3.51701172 0.78667969 3.50863281 -0.1875 3.5 C-1.13689453 3.49548828 -2.08628906 3.49097656 -3.06445312 3.48632812 C-5.41799531 3.47450128 -7.77150532 3.45656521 -10.125 3.4375 C-10.125 8.0575 -10.125 12.6775 -10.125 17.4375 C-10.785 17.4375 -11.445 17.4375 -12.125 17.4375 C-13.32756511 15.03236979 -13.3953777 13.30896436 -13.5 10.625 C-13.54898437 9.77292969 -13.59796875 8.92085937 -13.6484375 8.04296875 C-12.1706249 0.6869911 -6.55110125 -0.30428612 0 0 Z " fill="#F1F1F1" transform="translate(278.125,510.5625)"/>
<path d="M0 0 C0.87462891 -0.00128906 1.74925781 -0.00257813 2.65039062 -0.00390625 C3.56111328 -0.00003906 4.47183594 0.00382813 5.41015625 0.0078125 C6.31701172 0.00394531 7.22386719 0.00007812 8.15820312 -0.00390625 C9.03412109 -0.00261719 9.91003906 -0.00132812 10.8125 0 C11.61034912 0.00112793 12.40819824 0.00225586 13.23022461 0.00341797 C15.43346066 0.13055081 17.35649588 0.52387594 19.47265625 1.1328125 C19.47265625 1.7928125 19.47265625 2.4528125 19.47265625 3.1328125 C16.77990706 4.03039556 15.21579617 4.26117472 12.453125 4.265625 C11.67775391 4.26691406 10.90238281 4.26820313 10.10351562 4.26953125 C9.29720703 4.26566406 8.49089844 4.26179687 7.66015625 4.2578125 C6.86544922 4.26167969 6.07074219 4.26554688 5.25195312 4.26953125 C0.87985457 4.26229866 -3.22300089 4.00615743 -7.52734375 3.1328125 C-7.52734375 2.4728125 -7.52734375 1.8128125 -7.52734375 1.1328125 C-4.69677577 0.18928984 -2.93270006 0.00415187 0 0 Z " fill="#C5C5C5" transform="translate(358.52734375,558.8671875)"/>
<path d="M0 0 C0.66 0.33 1.32 0.66 2 1 C2 1.99 2 2.98 2 4 C3.65 4.33 5.3 4.66 7 5 C7.25 7.3125 7.25 7.3125 7 10 C5.1875 11.875 5.1875 11.875 3 13 C2.01 12.67 1.02 12.34 0 12 C0 11.01 0 10.02 0 9 C-1.98 9.99 -1.98 9.99 -4 11 C-3.56179109 6.44262737 -3.14958831 3.42346555 0 0 Z " fill="#090909" transform="translate(535,441)"/>
<path d="M0 0 C2.31 0 4.62 0 7 0 C7 1.32 7 2.64 7 4 C9.475 4.99 9.475 4.99 12 6 C11.34 7.65 10.68 9.3 10 11 C5.49197399 9.74194623 2.5087188 8.09592835 -1 5 C-0.67 3.35 -0.34 1.7 0 0 Z " fill="#F1F1F1" transform="translate(507,444)"/>
<path d="M0 0 C8.25 0 16.5 0 25 0 C25 0.66 25 1.32 25 2 C21.90049377 2.88873597 19.01495633 3.18543782 15.796875 3.31640625 C14.8171875 3.35830078 13.8375 3.40019531 12.828125 3.44335938 C11.81234375 3.48267578 10.7965625 3.52199219 9.75 3.5625 C8.203125 3.62727539 8.203125 3.62727539 6.625 3.69335938 C4.0834613 3.79925682 1.54182804 3.90133443 -1 4 C-0.67 2.68 -0.34 1.36 0 0 Z " fill="#E7E7E7" transform="translate(281,560)"/>
<path d="M0 0 C7.04440079 -0.21133202 13.24112575 -0.07965362 20 2 C20 2.99 20 3.98 20 5 C16.87463363 4.86142159 13.74981783 4.71290431 10.625 4.5625 C9.73554688 4.52318359 8.84609375 4.48386719 7.9296875 4.44335938 C7.07890625 4.40146484 6.228125 4.35957031 5.3515625 4.31640625 C4.56604004 4.27974854 3.78051758 4.24309082 2.97119141 4.20532227 C1 4 1 4 -1 3 C-0.67 2.01 -0.34 1.02 0 0 Z " fill="#D7D7D7" transform="translate(175,559)"/>
<path d="M0 0 C7.59 0 15.18 0 23 0 C23 0.99 23 1.98 23 3 C15.41 3 7.82 3 0 3 C0 2.01 0 1.02 0 0 Z " fill="#E5E5E5" transform="translate(215,511)"/>
<path d="M0 0 C0.97130859 -0.01224609 1.94261719 -0.02449219 2.94335938 -0.03710938 C3.87083984 -0.03904297 4.79832031 -0.04097656 5.75390625 -0.04296875 C7.02923218 -0.04913208 7.02923218 -0.04913208 8.33032227 -0.05541992 C10.4375 0.1875 10.4375 0.1875 12.4375 2.1875 C11.4375 3.1875 11.4375 3.1875 9.12084961 3.30102539 C8.12061768 3.29578857 7.12038574 3.29055176 6.08984375 3.28515625 C5.01025391 3.28193359 3.93066406 3.27871094 2.81835938 3.27539062 C1.68205078 3.26701172 0.54574219 3.25863281 -0.625 3.25 C-1.76517578 3.24548828 -2.90535156 3.24097656 -4.08007812 3.23632812 C-6.90760351 3.22449747 -9.7350264 3.2080141 -12.5625 3.1875 C-12.8925 2.5275 -13.2225 1.8675 -13.5625 1.1875 C-9.08780163 -0.30406612 -4.68663221 0.00312234 0 0 Z " fill="#E7E7E7" transform="translate(68.5625,510.8125)"/>
<path d="M0 0 C7.92 0 15.84 0 24 0 C24 0.66 24 1.32 24 2 C20.06410933 3.29146413 16.09264868 3.14724266 12 3.125 C10.93265625 3.13080078 10.93265625 3.13080078 9.84375 3.13671875 C6.42461983 3.13033978 3.26706994 3.07200732 0 2 C0 1.34 0 0.68 0 0 Z " fill="#E1E1E1" transform="translate(312,560)"/>
<path d="M0 0 C4.62 0 9.24 0 14 0 C15.8825986 4.7064965 16.27804446 7.08788119 16 12 C15.67 12.66 15.34 13.32 15 14 C14.01 14 13.02 14 12 14 C12 9.71 12 5.42 12 1 C8.04 1 4.08 1 0 1 C0 0.67 0 0.34 0 0 Z " fill="#C8C8C8" transform="translate(254,562)"/>
<path d="M0 0 C2 2 2 2 2.23046875 5.1875 C2.20919922 7.0746875 2.20919922 7.0746875 2.1875 9 C2.18105469 10.258125 2.17460937 11.51625 2.16796875 12.8125 C2 16 2 16 1 18 C0.01 17.67 -0.98 17.34 -2 17 C-2.3690205 5.47835991 -2.3690205 5.47835991 0 0 Z " fill="#E3E3E3" transform="translate(233,563)"/>
<path d="M0 0 C0.99 0 1.98 0 3 0 C3 4.62 3 9.24 3 14 C1.68 13.67 0.36 13.34 -1 13 C-1.02686553 11.02090602 -1.04633375 9.04171029 -1.0625 7.0625 C-1.07410156 5.96035156 -1.08570313 4.85820313 -1.09765625 3.72265625 C-1 1 -1 1 0 0 Z " fill="#F7F7F7" transform="translate(388,514)"/>
<path d="M0 0 C6.79740349 -0.8841378 13.57894669 -0.38922914 20 2 C20 2.33 20 2.66 20 3 C12.74 3 5.48 3 -2 3 C-1.34 2.01 -0.68 1.02 0 0 Z " fill="#F7F7F7" transform="translate(393,511)"/>
<path d="M0 0 C0.33 0 0.66 0 1 0 C1.05380578 2.79192205 1.09357669 5.5828141 1.125 8.375 C1.14175781 9.1690625 1.15851563 9.963125 1.17578125 10.78125 C1.19335473 12.85492015 1.10335168 14.92883241 1 17 C0.34 17.66 -0.32 18.32 -1 19 C-2.97299514 17.02700486 -2.18499989 13.31511482 -2.1875 10.625 C-2.19974609 9.93921875 -2.21199219 9.2534375 -2.22460938 8.546875 C-2.23552331 4.80703203 -2.1266842 3.1900263 0 0 Z " fill="#ECECEC" transform="translate(207,562)"/>
<path d="M0 0 C0.66 0 1.32 0 2 0 C2 5.28 2 10.56 2 16 C1.01 16 0.02 16 -1 16 C-1.02685095 13.52076199 -1.04676547 11.0418116 -1.0625 8.5625 C-1.07506836 7.50192383 -1.07506836 7.50192383 -1.08789062 6.41992188 C-1.09653588 4.61306441 -1.05220011 2.80612397 -1 1 C-0.67 0.67 -0.34 0.34 0 0 Z " fill="#EAEAEA" transform="translate(121,515)"/>
<path d="M0 0 C0.66 0 1.32 0 2 0 C2 5.28 2 10.56 2 16 C1.34 16 0.68 16 0 16 C-1.03354508 12.89936477 -1.13364996 10.68555932 -1.125 7.4375 C-1.12757813 6.46683594 -1.13015625 5.49617187 -1.1328125 4.49609375 C-1 2 -1 2 0 0 Z " fill="#DFDFDF" transform="translate(144,560)"/>
<path d="M0 0 C0.99 0.33 1.98 0.66 3 1 C5.56634861 1.22718496 8.11678107 1.41608184 10.6875 1.5625 C11.7403418 1.62727539 11.7403418 1.62727539 12.81445312 1.69335938 C14.54275206 1.7991736 16.2713511 1.90006581 18 2 C18 2.33 18 2.66 18 3 C12.06 3 6.12 3 0 3 C0 6.96 0 10.92 0 15 C-0.33 15 -0.66 15 -1 15 C-1.33 11.37 -1.66 7.74 -2 4 C-2.99 4.495 -2.99 4.495 -4 5 C-2.25 1.125 -2.25 1.125 0 0 Z " fill="#AAAAAA" transform="translate(427,512)"/>
<path d="M0 0 C0.33 0.99 0.66 1.98 1 3 C0.67 3.66 0.34 4.32 0 5 C-0.22467831 6.53668865 -0.40796805 8.07968054 -0.5625 9.625 C-0.64628906 10.44226563 -0.73007812 11.25953125 -0.81640625 12.1015625 C-0.87699219 12.72804688 -0.93757813 13.35453125 -1 14 C-1.66 14 -2.32 14 -3 14 C-3.38133299 12.0085944 -3.71325582 10.00720923 -4 8 C-3.67 7.67 -3.34 7.34 -3 7 C-4.32 6.67 -5.64 6.34 -7 6 C-6.67 5.01 -6.34 4.02 -6 3 C-4.35 3 -2.7 3 -1 3 C-0.67 2.01 -0.34 1.02 0 0 Z " fill="#ECECEC" transform="translate(403,415)"/>
<path d="M0 0 C0.66 0.33 1.32 0.66 2 1 C2 1.99 2 2.98 2 4 C3.32 4.33 4.64 4.66 6 5 C3.92446352 5.5534764 2.15634036 6 0 6 C-0.28875 6.639375 -0.5775 7.27875 -0.875 7.9375 C-2 10 -2 10 -4 11 C-3.56179109 6.44262737 -3.14958831 3.42346555 0 0 Z " fill="#C9C9C9" transform="translate(535,441)"/>
<path d="M0 0 C0.66 0.33 1.32 0.66 2 1 C2.05389087 2.95803507 2.09274217 4.91648909 2.125 6.875 C2.14820313 7.96554687 2.17140625 9.05609375 2.1953125 10.1796875 C2 13 2 13 0 15 C-1 14 -1 14 -1.1328125 11.09375 C-1.13023437 9.9078125 -1.12765625 8.721875 -1.125 7.5 C-1.12757813 6.3140625 -1.13015625 5.128125 -1.1328125 3.90625 C-1 1 -1 1 0 0 Z " fill="#E9E9E9" transform="translate(166,518)"/>
<path d="M0 0 C0 2.64 0 5.28 0 8 C-1.32 8.33 -2.64 8.66 -4 9 C-4.33 6.69 -4.66 4.38 -5 2 C-2 0 -2 0 0 0 Z " fill="#E7E7E7" transform="translate(173,572)"/>
<path d="M0 0 C2.475 0.495 2.475 0.495 5 1 C5 2.98 5 4.96 5 7 C3.0625 7.5625 3.0625 7.5625 1 8 C0 7 0 7 -0.0625 3.4375 C-0.041875 2.303125 -0.02125 1.16875 0 0 Z " fill="#E6E6E6" transform="translate(195,573)"/>
<path d="M0 0 C0.99 0.33 1.98 0.66 3 1 C3.05395478 2.62463842 3.09277195 4.24978541 3.125 5.875 C3.14820313 6.77992188 3.17140625 7.68484375 3.1953125 8.6171875 C3 11 3 11 1 13 C0 12 0 12 -0.09765625 9.27734375 C-0.08605469 8.17519531 -0.07445312 7.07304688 -0.0625 5.9375 C-0.05347656 4.83277344 -0.04445313 3.72804688 -0.03515625 2.58984375 C-0.02355469 1.73519531 -0.01195312 0.88054688 0 0 Z " fill="#DCDCDC" transform="translate(292,515)"/>
<path d="M0 0 C0.99 0.33 1.98 0.66 3 1 C4.33363703 1.14403348 5.67218046 1.24590423 7.01171875 1.31640625 C8.14770508 1.37924805 8.14770508 1.37924805 9.30664062 1.44335938 C10.48516602 1.50233398 10.48516602 1.50233398 11.6875 1.5625 C12.88342773 1.62727539 12.88342773 1.62727539 14.10351562 1.69335938 C16.06881447 1.79927368 18.03438496 1.90012551 20 2 C20 2.33 20 2.66 20 3 C13.4 3 6.8 3 0 3 C-0.33 3.66 -0.66 4.32 -1 5 C-1.99 4.34 -2.98 3.68 -4 3 C-2.1875 1.4375 -2.1875 1.4375 0 0 Z " fill="#A5A5A5" transform="translate(304,512)"/>
<path d="M0 0 C0.33 0 0.66 0 1 0 C1 3.96 1 7.92 1 12 C0.34 12 -0.32 12 -1 12 C-2.11445498 9.77109005 -2.16480286 8.46944894 -2.1875 6 C-2.20167969 5.29875 -2.21585937 4.5975 -2.23046875 3.875 C-2 2 -2 2 0 0 Z " fill="#F9F9F9" transform="translate(267,516)"/>
<path d="M0 0 C0.598125 0.226875 1.19625 0.45375 1.8125 0.6875 C1.4825 1.6775 1.1525 2.6675 0.8125 3.6875 C-1.80247339 4.92617161 -4.44261949 5.77253983 -7.1875 6.6875 C-3.9375 -0.5625 -3.9375 -0.5625 0 0 Z " fill="#D8D8D8" transform="translate(413.1875,406.3125)"/>
<path d="M0 0 C2.64 0 5.28 0 8 0 C8 0.99 8 1.98 8 3 C5.03 3 2.06 3 -1 3 C-0.67 2.01 -0.34 1.02 0 0 Z " fill="#DBDBDB" transform="translate(93,511)"/>
<path d="M0 0 C0.66 0.33 1.32 0.66 2 1 C-2.11378556 8.5273523 -2.11378556 8.5273523 -5.8125 10.5 C-6.534375 10.665 -7.25625 10.83 -8 11 C-6.63629701 8.00779732 -5.05091917 5.70973471 -2.875 3.25 C-2.33617187 2.63640625 -1.79734375 2.0228125 -1.2421875 1.390625 C-0.62730469 0.70226562 -0.62730469 0.70226562 0 0 Z " fill="#D9D9D9" transform="translate(447,136)"/>
<path d="M0 0 C0.99 0 1.98 0 3 0 C3 2.31 3 4.62 3 7 C2.01 7.33 1.02 7.66 0 8 C0 5.36 0 2.72 0 0 Z " fill="#E5E5E5" transform="translate(312,573)"/>
<path d="M0 0 C1.98 0 3.96 0 6 0 C6.33 1.32 6.66 2.64 7 4 C5.68 4.33 4.36 4.66 3 5 C3 4.01 3 3.02 3 2 C2.01 1.67 1.02 1.34 0 1 C0 0.67 0 0.34 0 0 Z " fill="#E9E9E9" transform="translate(469,410)"/>
<path d="M0 0 C0.99 0.33 1.98 0.66 3 1 C3.6875 3.0625 3.6875 3.0625 4 5 C2.68 5.33 1.36 5.66 0 6 C-0.38218767 4.34385343 -0.71395102 2.67542976 -1 1 C-0.67 0.67 -0.34 0.34 0 0 Z " fill="#E5E5E5" transform="translate(452,356)"/>
<path d="M0 0 C0.66 0 1.32 0 2 0 C2 2.64 2 5.28 2 8 C1.01 7.67 0.02 7.34 -1 7 C-1.04254356 5.00045254 -1.04080783 2.99958364 -1 1 C-0.67 0.67 -0.34 0.34 0 0 Z " fill="#DBDBDB" transform="translate(339,573)"/>
<path d="M0 0 C0.99 0 1.98 0 3 0 C3 2.31 3 4.62 3 7 C2.01 7 1.02 7 0 7 C0 4.69 0 2.38 0 0 Z " fill="#E6E6E6" transform="translate(300,525)"/>
<path d="M0 0 C0.33 0.99 0.66 1.98 1 3 C-0.8125 4.5625 -0.8125 4.5625 -3 6 C-3.99 5.67 -4.98 5.34 -6 5 C-5.67 4.01 -5.34 3.02 -5 2 C-2.4375 0.8125 -2.4375 0.8125 0 0 Z " fill="#D2D2D2" transform="translate(541,448)"/>
<path d="M0 0 C0.66 0 1.32 0 2 0 C2 2.31 2 4.62 2 7 C1.01 6.67 0.02 6.34 -1 6 C-1.042721 4.33388095 -1.04063832 2.66617115 -1 1 C-0.67 0.67 -0.34 0.34 0 0 Z " fill="#E7E7E7" transform="translate(174,525)"/>
<path d="M0 0 C0.66 0 1.32 0 2 0 C2 2.31 2 4.62 2 7 C1.34 7 0.68 7 0 7 C-0.38133299 5.0085944 -0.71325582 3.00720923 -1 1 C-0.67 0.67 -0.34 0.34 0 0 Z " fill="#D0D0D0" transform="translate(400,422)"/>
<path d="M0 0 C0.33 0.66 0.66 1.32 1 2 C-1.36620011 4.61527381 -3.942048 6.26440562 -7 8 C-5.50902342 4.2047869 -3.24299151 2.38957269 0 0 Z " fill="#EDEDED" transform="translate(442,144)"/>
</svg>
